<mxfile host="app.diagrams.net" agent="Mozilla/5.0 (Windows NT 10.0; Win64; x64) AppleWebKit/537.36 (KHTML, like Gecko) Chrome/131.0.0.0 Safari/537.36" version="24.9.1" pages="5">
  <diagram name="via_pipline.py" id="-bQsaNgwRsByCQ_v_ia1">
    <mxGraphModel dx="1912" dy="984" grid="1" gridSize="10" guides="1" tooltips="1" connect="1" arrows="1" fold="1" page="1" pageScale="1" pageWidth="827" pageHeight="1169" math="0" shadow="0">
      <root>
        <mxCell id="0" />
        <mxCell id="1" parent="0" />
        <mxCell id="suQ4SGihrJFk4x211_iq-1" value="Key Components" style="whiteSpace=wrap;strokeWidth=2;fontSize=16;fontStyle=1" vertex="1" parent="1">
          <mxGeometry x="260" y="744" width="1570" height="387" as="geometry" />
        </mxCell>
        <mxCell id="suQ4SGihrJFk4x211_iq-2" value="VIA API Process" style="whiteSpace=wrap;strokeWidth=2;align=center;verticalAlign=bottom;fontSize=16;fontStyle=1;horizontal=1;" vertex="1" parent="1">
          <mxGeometry x="20" y="20" width="1820" height="704" as="geometry" />
        </mxCell>
        <mxCell id="suQ4SGihrJFk4x211_iq-3" value="APIs" style="whiteSpace=wrap;strokeWidth=2;verticalAlign=top;" vertex="1" parent="1">
          <mxGeometry x="952" y="40" width="243" height="565" as="geometry" />
        </mxCell>
        <mxCell id="suQ4SGihrJFk4x211_iq-4" value="Health Check API" style="whiteSpace=wrap;strokeWidth=2;" vertex="1" parent="1">
          <mxGeometry x="983" y="115" width="182" height="49" as="geometry" />
        </mxCell>
        <mxCell id="suQ4SGihrJFk4x211_iq-5" value="Files API" style="whiteSpace=wrap;strokeWidth=2;fillColor=#d5e8d4;strokeColor=#82b366;" vertex="1" parent="1">
          <mxGeometry x="1014" y="224" width="120" height="49" as="geometry" />
        </mxCell>
        <mxCell id="suQ4SGihrJFk4x211_iq-6" value="Live Stream API" style="whiteSpace=wrap;strokeWidth=2;fillColor=#fff2cc;strokeColor=#d6b656;" vertex="1" parent="1">
          <mxGeometry x="988" y="323" width="171" height="49" as="geometry" />
        </mxCell>
        <mxCell id="suQ4SGihrJFk4x211_iq-7" value="Models API" style="whiteSpace=wrap;strokeWidth=2;" vertex="1" parent="1">
          <mxGeometry x="1006" y="422" width="137" height="49" as="geometry" />
        </mxCell>
        <mxCell id="suQ4SGihrJFk4x211_iq-43" style="edgeStyle=orthogonalEdgeStyle;rounded=0;orthogonalLoop=1;jettySize=auto;html=1;entryX=0;entryY=0.5;entryDx=0;entryDy=0;curved=1;fillColor=#dae8fc;strokeColor=#6c8ebf;strokeWidth=3;" edge="1" parent="1" source="suQ4SGihrJFk4x211_iq-8" target="suQ4SGihrJFk4x211_iq-17">
          <mxGeometry relative="1" as="geometry" />
        </mxCell>
        <mxCell id="suQ4SGihrJFk4x211_iq-44" style="edgeStyle=orthogonalEdgeStyle;rounded=0;orthogonalLoop=1;jettySize=auto;html=1;entryX=0;entryY=0.5;entryDx=0;entryDy=0;curved=1;fillColor=#dae8fc;strokeColor=#6c8ebf;strokeWidth=3;" edge="1" parent="1" source="suQ4SGihrJFk4x211_iq-8" target="suQ4SGihrJFk4x211_iq-18">
          <mxGeometry relative="1" as="geometry">
            <Array as="points">
              <mxPoint x="1300" y="545" />
              <mxPoint x="1300" y="929" />
            </Array>
          </mxGeometry>
        </mxCell>
        <mxCell id="suQ4SGihrJFk4x211_iq-45" style="edgeStyle=orthogonalEdgeStyle;rounded=0;orthogonalLoop=1;jettySize=auto;html=1;entryX=0;entryY=0.5;entryDx=0;entryDy=0;curved=1;fillColor=#dae8fc;strokeColor=#6c8ebf;strokeWidth=3;" edge="1" parent="1" source="suQ4SGihrJFk4x211_iq-8" target="suQ4SGihrJFk4x211_iq-19">
          <mxGeometry relative="1" as="geometry">
            <Array as="points">
              <mxPoint x="1280" y="545" />
              <mxPoint x="1280" y="1053" />
            </Array>
          </mxGeometry>
        </mxCell>
        <mxCell id="suQ4SGihrJFk4x211_iq-8" value="Summarization API" style="whiteSpace=wrap;strokeWidth=2;fillColor=#dae8fc;strokeColor=#6c8ebf;" vertex="1" parent="1">
          <mxGeometry x="977" y="521" width="193" height="49" as="geometry" />
        </mxCell>
        <mxCell id="suQ4SGihrJFk4x211_iq-9" value="Start Server" style="whiteSpace=wrap;strokeWidth=2;" vertex="1" parent="1">
          <mxGeometry x="45" y="372" width="146" height="49" as="geometry" />
        </mxCell>
        <mxCell id="suQ4SGihrJFk4x211_iq-10" value="Configuration" style="whiteSpace=wrap;strokeWidth=2;" vertex="1" parent="1">
          <mxGeometry x="241" y="372" width="157" height="49" as="geometry" />
        </mxCell>
        <mxCell id="suQ4SGihrJFk4x211_iq-11" value="Pipeline Initialization" style="whiteSpace=wrap;strokeWidth=2;" vertex="1" parent="1">
          <mxGeometry x="473" y="372" width="213" height="49" as="geometry" />
        </mxCell>
        <mxCell id="suQ4SGihrJFk4x211_iq-12" value="API Definitions" style="whiteSpace=wrap;strokeWidth=2;" vertex="1" parent="1">
          <mxGeometry x="736" y="372" width="166" height="49" as="geometry" />
        </mxCell>
        <mxCell id="suQ4SGihrJFk4x211_iq-13" value="Error Handlers" style="whiteSpace=wrap;strokeWidth=2;" vertex="1" parent="1">
          <mxGeometry x="992" y="640" width="164" height="49" as="geometry" />
        </mxCell>
        <mxCell id="suQ4SGihrJFk4x211_iq-14" value="Ready Probe" style="whiteSpace=wrap;strokeWidth=2;" vertex="1" parent="1">
          <mxGeometry x="1460" y="66" width="148" height="49" as="geometry" />
        </mxCell>
        <mxCell id="suQ4SGihrJFk4x211_iq-15" value="Live Probe" style="whiteSpace=wrap;strokeWidth=2;" vertex="1" parent="1">
          <mxGeometry x="1460" y="164" width="135" height="49" as="geometry" />
        </mxCell>
        <mxCell id="suQ4SGihrJFk4x211_iq-16" value="FastAPI Framework&#xa;Manages API Routing" style="whiteSpace=wrap;strokeWidth=2;" vertex="1" parent="1">
          <mxGeometry x="300" y="920" width="206" height="67" as="geometry" />
        </mxCell>
        <mxCell id="suQ4SGihrJFk4x211_iq-17" value="Asset Manager&#xa;Handles File Operations" style="whiteSpace=wrap;strokeWidth=2;" vertex="1" parent="1">
          <mxGeometry x="1470" y="779" width="231" height="67" as="geometry" />
        </mxCell>
        <mxCell id="suQ4SGihrJFk4x211_iq-18" value="ViaPipeline&#xa;Handles Summarization Pipelines" style="whiteSpace=wrap;strokeWidth=2;" vertex="1" parent="1">
          <mxGeometry x="1470" y="887" width="228" height="84" as="geometry" />
        </mxCell>
        <mxCell id="suQ4SGihrJFk4x211_iq-19" value="SSEClient&#xa;Handles Server-Sent Events" style="whiteSpace=wrap;strokeWidth=2;" vertex="1" parent="1">
          <mxGeometry x="1470" y="1020" width="256" height="67" as="geometry" />
        </mxCell>
        <mxCell id="suQ4SGihrJFk4x211_iq-20" value="" style="curved=1;startArrow=none;endArrow=block;exitX=1;exitY=0.51;entryX=0;entryY=0.51;rounded=0;" edge="1" parent="1" source="suQ4SGihrJFk4x211_iq-9" target="suQ4SGihrJFk4x211_iq-10">
          <mxGeometry relative="1" as="geometry">
            <Array as="points" />
          </mxGeometry>
        </mxCell>
        <mxCell id="suQ4SGihrJFk4x211_iq-21" value="" style="curved=1;startArrow=none;endArrow=block;exitX=1;exitY=0.51;entryX=0;entryY=0.51;rounded=0;" edge="1" parent="1" source="suQ4SGihrJFk4x211_iq-10" target="suQ4SGihrJFk4x211_iq-11">
          <mxGeometry relative="1" as="geometry">
            <Array as="points" />
          </mxGeometry>
        </mxCell>
        <mxCell id="suQ4SGihrJFk4x211_iq-22" value="" style="curved=1;startArrow=none;endArrow=block;exitX=1;exitY=0.51;entryX=0;entryY=0.51;rounded=0;" edge="1" parent="1" source="suQ4SGihrJFk4x211_iq-11" target="suQ4SGihrJFk4x211_iq-12">
          <mxGeometry relative="1" as="geometry">
            <Array as="points" />
          </mxGeometry>
        </mxCell>
        <mxCell id="suQ4SGihrJFk4x211_iq-23" value="" style="curved=1;startArrow=none;endArrow=block;exitX=0.56;exitY=0.01;entryX=0;entryY=0.49;rounded=0;" edge="1" parent="1" source="suQ4SGihrJFk4x211_iq-12" target="suQ4SGihrJFk4x211_iq-4">
          <mxGeometry relative="1" as="geometry">
            <Array as="points">
              <mxPoint x="927" y="139" />
            </Array>
          </mxGeometry>
        </mxCell>
        <mxCell id="suQ4SGihrJFk4x211_iq-24" value="" style="curved=1;startArrow=none;endArrow=block;exitX=0.61;exitY=0.01;entryX=0;entryY=0.49;rounded=0;fillColor=#d5e8d4;strokeColor=#82b366;strokeWidth=3;" edge="1" parent="1" source="suQ4SGihrJFk4x211_iq-12" target="suQ4SGihrJFk4x211_iq-5">
          <mxGeometry relative="1" as="geometry">
            <Array as="points">
              <mxPoint x="927" y="248" />
            </Array>
          </mxGeometry>
        </mxCell>
        <mxCell id="suQ4SGihrJFk4x211_iq-25" value="" style="curved=1;startArrow=none;endArrow=block;exitX=0.82;exitY=0.01;entryX=0;entryY=0.49;rounded=0;fillColor=#fff2cc;strokeColor=#d6b656;strokeWidth=3;" edge="1" parent="1" source="suQ4SGihrJFk4x211_iq-12" target="suQ4SGihrJFk4x211_iq-6">
          <mxGeometry relative="1" as="geometry">
            <Array as="points">
              <mxPoint x="927" y="347" />
            </Array>
          </mxGeometry>
        </mxCell>
        <mxCell id="suQ4SGihrJFk4x211_iq-26" value="" style="curved=1;startArrow=none;endArrow=block;exitX=0.82;exitY=1.01;entryX=0;entryY=0.49;rounded=0;" edge="1" parent="1" source="suQ4SGihrJFk4x211_iq-12" target="suQ4SGihrJFk4x211_iq-7">
          <mxGeometry relative="1" as="geometry">
            <Array as="points">
              <mxPoint x="927" y="446" />
            </Array>
          </mxGeometry>
        </mxCell>
        <mxCell id="suQ4SGihrJFk4x211_iq-27" value="" style="curved=1;startArrow=none;endArrow=block;exitX=0.61;exitY=1.01;entryX=0;entryY=0.49;rounded=0;fillColor=#dae8fc;strokeColor=#6c8ebf;strokeWidth=3;" edge="1" parent="1" source="suQ4SGihrJFk4x211_iq-12" target="suQ4SGihrJFk4x211_iq-8">
          <mxGeometry relative="1" as="geometry">
            <Array as="points">
              <mxPoint x="927" y="545" />
            </Array>
          </mxGeometry>
        </mxCell>
        <mxCell id="suQ4SGihrJFk4x211_iq-28" value="" style="curved=1;startArrow=none;endArrow=block;exitX=0.56;exitY=1.01;entryX=0;entryY=0.49;rounded=0;" edge="1" parent="1" source="suQ4SGihrJFk4x211_iq-12" target="suQ4SGihrJFk4x211_iq-13">
          <mxGeometry relative="1" as="geometry">
            <Array as="points">
              <mxPoint x="927" y="664" />
            </Array>
          </mxGeometry>
        </mxCell>
        <mxCell id="suQ4SGihrJFk4x211_iq-29" value="" style="curved=1;startArrow=none;endArrow=block;exitX=0.83;exitY=-0.01;entryX=0;entryY=0.51;rounded=0;" edge="1" parent="1" source="suQ4SGihrJFk4x211_iq-4" target="suQ4SGihrJFk4x211_iq-14">
          <mxGeometry relative="1" as="geometry">
            <Array as="points">
              <mxPoint x="1195" y="90" />
            </Array>
          </mxGeometry>
        </mxCell>
        <mxCell id="suQ4SGihrJFk4x211_iq-30" value="" style="curved=1;startArrow=none;endArrow=block;exitX=0.83;exitY=0.99;entryX=0;entryY=0.51;rounded=0;" edge="1" parent="1" source="suQ4SGihrJFk4x211_iq-4" target="suQ4SGihrJFk4x211_iq-15">
          <mxGeometry relative="1" as="geometry">
            <Array as="points">
              <mxPoint x="1195" y="189" />
            </Array>
          </mxGeometry>
        </mxCell>
        <mxCell id="suQ4SGihrJFk4x211_iq-31" value="" style="startArrow=none;endArrow=block;exitX=1;exitY=0.49;rounded=0;edgeStyle=orthogonalEdgeStyle;curved=1;fillColor=#d5e8d4;strokeColor=#82b366;strokeWidth=3;" edge="1" parent="1" source="suQ4SGihrJFk4x211_iq-5">
          <mxGeometry relative="1" as="geometry">
            <Array as="points">
              <mxPoint x="1380" y="248" />
              <mxPoint x="1380" y="810" />
            </Array>
            <mxPoint x="1470" y="810" as="targetPoint" />
          </mxGeometry>
        </mxCell>
        <mxCell id="suQ4SGihrJFk4x211_iq-32" value="" style="startArrow=none;endArrow=block;exitX=1;exitY=0.49;entryX=0;entryY=0.5;rounded=0;entryDx=0;entryDy=0;edgeStyle=orthogonalEdgeStyle;curved=1;fillColor=#fff2cc;strokeColor=#d6b656;strokeWidth=3;" edge="1" parent="1" source="suQ4SGihrJFk4x211_iq-6" target="suQ4SGihrJFk4x211_iq-18">
          <mxGeometry relative="1" as="geometry" />
        </mxCell>
        <mxCell id="suQ4SGihrJFk4x211_iq-36" value="" style="curved=1;startArrow=none;endArrow=block;exitX=1;exitY=0.5;entryX=0.47;entryY=1.01;rounded=0;" edge="1" parent="1" source="suQ4SGihrJFk4x211_iq-16" target="suQ4SGihrJFk4x211_iq-12">
          <mxGeometry relative="1" as="geometry">
            <Array as="points">
              <mxPoint x="711" y="937" />
            </Array>
          </mxGeometry>
        </mxCell>
      </root>
    </mxGraphModel>
  </diagram>
  <diagram id="bR1P8zDqAV5XDnvWCLIB" name="better_via_pipline">
    <mxGraphModel dx="1109" dy="2037" grid="1" gridSize="10" guides="1" tooltips="1" connect="1" arrows="1" fold="1" page="1" pageScale="1" pageWidth="827" pageHeight="1169" math="0" shadow="0">
      <root>
        <mxCell id="0" />
        <mxCell id="1" parent="0" />
        <mxCell id="FegyAu5vltgs20GAI60T-1" value="Exception Handlers" style="whiteSpace=wrap;strokeWidth=2;verticalAlign=top;fontStyle=1;fontFamily=Helvetica;fontSize=20;" vertex="1" parent="1">
          <mxGeometry x="1200" y="220" width="300" height="300" as="geometry" />
        </mxCell>
        <mxCell id="FegyAu5vltgs20GAI60T-10" value="Models API" style="whiteSpace=wrap;strokeWidth=2;verticalAlign=top;fontFamily=Helvetica;fontStyle=1;fontSize=20;" vertex="1" parent="1">
          <mxGeometry x="2120" y="570" width="281" height="248" as="geometry" />
        </mxCell>
        <mxCell id="FegyAu5vltgs20GAI60T-11" value="list_models()" style="whiteSpace=wrap;strokeWidth=2;" vertex="1" parent="FegyAu5vltgs20GAI60T-10">
          <mxGeometry x="72" y="46" width="153" height="49" as="geometry" />
        </mxCell>
        <mxCell id="FegyAu5vltgs20GAI60T-12" value="Return List of Models" style="whiteSpace=wrap;strokeWidth=2;" vertex="1" parent="FegyAu5vltgs20GAI60T-10">
          <mxGeometry x="43" y="170" width="211" height="49" as="geometry" />
        </mxCell>
        <mxCell id="FegyAu5vltgs20GAI60T-13" value="" style="curved=1;startArrow=none;endArrow=block;exitX=0.5;exitY=0.99;entryX=0.5;entryY=-0.01;rounded=0;" edge="1" parent="FegyAu5vltgs20GAI60T-10" source="FegyAu5vltgs20GAI60T-11" target="FegyAu5vltgs20GAI60T-12">
          <mxGeometry relative="1" as="geometry">
            <Array as="points" />
          </mxGeometry>
        </mxCell>
        <mxCell id="FegyAu5vltgs20GAI60T-14" value="Live Stream API" style="whiteSpace=wrap;strokeWidth=2;verticalAlign=top;fontFamily=Helvetica;fontStyle=1;fontSize=20;" vertex="1" parent="1">
          <mxGeometry x="2230" y="290" width="811" height="248" as="geometry" />
        </mxCell>
        <mxCell id="FegyAu5vltgs20GAI60T-15" value="add_live_stream()" style="whiteSpace=wrap;strokeWidth=2;" vertex="1" parent="FegyAu5vltgs20GAI60T-14">
          <mxGeometry x="43" y="46" width="190" height="49" as="geometry" />
        </mxCell>
        <mxCell id="FegyAu5vltgs20GAI60T-16" value="Add Live Stream" style="whiteSpace=wrap;strokeWidth=2;" vertex="1" parent="FegyAu5vltgs20GAI60T-14">
          <mxGeometry x="49" y="170" width="178" height="49" as="geometry" />
        </mxCell>
        <mxCell id="FegyAu5vltgs20GAI60T-17" value="list_live_stream()" style="whiteSpace=wrap;strokeWidth=2;" vertex="1" parent="FegyAu5vltgs20GAI60T-14">
          <mxGeometry x="311" y="46" width="186" height="49" as="geometry" />
        </mxCell>
        <mxCell id="FegyAu5vltgs20GAI60T-18" value="Return List of Live Streams" style="whiteSpace=wrap;strokeWidth=2;" vertex="1" parent="FegyAu5vltgs20GAI60T-14">
          <mxGeometry x="277" y="170" width="254" height="49" as="geometry" />
        </mxCell>
        <mxCell id="FegyAu5vltgs20GAI60T-19" value="delete_live_stream()" style="whiteSpace=wrap;strokeWidth=2;" vertex="1" parent="FegyAu5vltgs20GAI60T-14">
          <mxGeometry x="574" y="46" width="210" height="49" as="geometry" />
        </mxCell>
        <mxCell id="FegyAu5vltgs20GAI60T-20" value="Delete Live Stream" style="whiteSpace=wrap;strokeWidth=2;" vertex="1" parent="FegyAu5vltgs20GAI60T-14">
          <mxGeometry x="581" y="170" width="197" height="49" as="geometry" />
        </mxCell>
        <mxCell id="FegyAu5vltgs20GAI60T-21" value="" style="curved=1;startArrow=none;endArrow=block;exitX=0.5;exitY=0.99;entryX=0.5;entryY=-0.01;rounded=0;" edge="1" parent="FegyAu5vltgs20GAI60T-14" source="FegyAu5vltgs20GAI60T-15" target="FegyAu5vltgs20GAI60T-16">
          <mxGeometry relative="1" as="geometry">
            <Array as="points" />
          </mxGeometry>
        </mxCell>
        <mxCell id="FegyAu5vltgs20GAI60T-22" value="" style="curved=1;startArrow=none;endArrow=block;exitX=0.5;exitY=0.99;entryX=0.5;entryY=-0.01;rounded=0;" edge="1" parent="FegyAu5vltgs20GAI60T-14" source="FegyAu5vltgs20GAI60T-17" target="FegyAu5vltgs20GAI60T-18">
          <mxGeometry relative="1" as="geometry">
            <Array as="points" />
          </mxGeometry>
        </mxCell>
        <mxCell id="FegyAu5vltgs20GAI60T-23" value="" style="curved=1;startArrow=none;endArrow=block;exitX=0.5;exitY=0.99;entryX=0.5;entryY=-0.01;rounded=0;" edge="1" parent="FegyAu5vltgs20GAI60T-14" source="FegyAu5vltgs20GAI60T-19" target="FegyAu5vltgs20GAI60T-20">
          <mxGeometry relative="1" as="geometry">
            <Array as="points" />
          </mxGeometry>
        </mxCell>
        <mxCell id="FegyAu5vltgs20GAI60T-24" value="Files API" style="whiteSpace=wrap;strokeWidth=2;verticalAlign=top;fontFamily=Helvetica;fontStyle=1;fontSize=20;" vertex="1" parent="1">
          <mxGeometry x="1520" y="-120" width="1415" height="372" as="geometry" />
        </mxCell>
        <mxCell id="FegyAu5vltgs20GAI60T-25" value="add_video_file()" style="whiteSpace=wrap;strokeWidth=2;" vertex="1" parent="FegyAu5vltgs20GAI60T-24">
          <mxGeometry x="157" y="46" width="177" height="49" as="geometry" />
        </mxCell>
        <mxCell id="FegyAu5vltgs20GAI60T-26" value="Upload Video File" style="whiteSpace=wrap;strokeWidth=2;" vertex="1" parent="FegyAu5vltgs20GAI60T-24">
          <mxGeometry x="43" y="170" width="186" height="49" as="geometry" />
        </mxCell>
        <mxCell id="FegyAu5vltgs20GAI60T-27" value="Validate File" style="whiteSpace=wrap;strokeWidth=2;" vertex="1" parent="FegyAu5vltgs20GAI60T-24">
          <mxGeometry x="279" y="170" width="151" height="49" as="geometry" />
        </mxCell>
        <mxCell id="FegyAu5vltgs20GAI60T-28" value="Store File" style="whiteSpace=wrap;strokeWidth=2;" vertex="1" parent="FegyAu5vltgs20GAI60T-24">
          <mxGeometry x="290" y="294" width="129" height="49" as="geometry" />
        </mxCell>
        <mxCell id="FegyAu5vltgs20GAI60T-29" value="delete_video_file()" style="whiteSpace=wrap;strokeWidth=2;" vertex="1" parent="FegyAu5vltgs20GAI60T-24">
          <mxGeometry x="480" y="170" width="197" height="49" as="geometry" />
        </mxCell>
        <mxCell id="FegyAu5vltgs20GAI60T-30" value="Delete File" style="whiteSpace=wrap;strokeWidth=2;" vertex="1" parent="FegyAu5vltgs20GAI60T-24">
          <mxGeometry x="509" y="294" width="139" height="49" as="geometry" />
        </mxCell>
        <mxCell id="FegyAu5vltgs20GAI60T-31" value="list_video_files()" style="whiteSpace=wrap;strokeWidth=2;" vertex="1" parent="FegyAu5vltgs20GAI60T-24">
          <mxGeometry x="727" y="170" width="180" height="49" as="geometry" />
        </mxCell>
        <mxCell id="FegyAu5vltgs20GAI60T-32" value="Return List of Files" style="whiteSpace=wrap;strokeWidth=2;" vertex="1" parent="FegyAu5vltgs20GAI60T-24">
          <mxGeometry x="719" y="294" width="195" height="49" as="geometry" />
        </mxCell>
        <mxCell id="FegyAu5vltgs20GAI60T-33" value="get_file_info()" style="whiteSpace=wrap;strokeWidth=2;" vertex="1" parent="FegyAu5vltgs20GAI60T-24">
          <mxGeometry x="969" y="170" width="163" height="49" as="geometry" />
        </mxCell>
        <mxCell id="FegyAu5vltgs20GAI60T-34" value="Return File Info" style="whiteSpace=wrap;strokeWidth=2;" vertex="1" parent="FegyAu5vltgs20GAI60T-24">
          <mxGeometry x="965" y="294" width="172" height="49" as="geometry" />
        </mxCell>
        <mxCell id="FegyAu5vltgs20GAI60T-35" value="get_file_content()" style="whiteSpace=wrap;strokeWidth=2;" vertex="1" parent="FegyAu5vltgs20GAI60T-24">
          <mxGeometry x="1191" y="170" width="191" height="49" as="geometry" />
        </mxCell>
        <mxCell id="FegyAu5vltgs20GAI60T-36" value="Return File Content" style="whiteSpace=wrap;strokeWidth=2;" vertex="1" parent="FegyAu5vltgs20GAI60T-24">
          <mxGeometry x="1186" y="294" width="201" height="49" as="geometry" />
        </mxCell>
        <mxCell id="FegyAu5vltgs20GAI60T-37" value="" style="curved=1;startArrow=none;endArrow=block;exitX=0.25;exitY=0.99;entryX=0.5;entryY=-0.01;rounded=0;" edge="1" parent="FegyAu5vltgs20GAI60T-24" source="FegyAu5vltgs20GAI60T-25" target="FegyAu5vltgs20GAI60T-26">
          <mxGeometry relative="1" as="geometry">
            <Array as="points">
              <mxPoint x="136" y="132" />
            </Array>
          </mxGeometry>
        </mxCell>
        <mxCell id="FegyAu5vltgs20GAI60T-38" value="" style="curved=1;startArrow=none;endArrow=block;exitX=0.74;exitY=0.99;entryX=0.5;entryY=-0.01;rounded=0;" edge="1" parent="FegyAu5vltgs20GAI60T-24" source="FegyAu5vltgs20GAI60T-25" target="FegyAu5vltgs20GAI60T-27">
          <mxGeometry relative="1" as="geometry">
            <Array as="points">
              <mxPoint x="355" y="132" />
            </Array>
          </mxGeometry>
        </mxCell>
        <mxCell id="FegyAu5vltgs20GAI60T-39" value="" style="curved=1;startArrow=none;endArrow=block;exitX=0.5;exitY=0.99;entryX=0.5;entryY=-0.01;rounded=0;" edge="1" parent="FegyAu5vltgs20GAI60T-24" source="FegyAu5vltgs20GAI60T-27" target="FegyAu5vltgs20GAI60T-28">
          <mxGeometry relative="1" as="geometry">
            <Array as="points" />
          </mxGeometry>
        </mxCell>
        <mxCell id="FegyAu5vltgs20GAI60T-40" value="" style="curved=1;startArrow=none;endArrow=block;exitX=0.5;exitY=0.99;entryX=0.5;entryY=-0.01;rounded=0;" edge="1" parent="FegyAu5vltgs20GAI60T-24" source="FegyAu5vltgs20GAI60T-29" target="FegyAu5vltgs20GAI60T-30">
          <mxGeometry relative="1" as="geometry">
            <Array as="points" />
          </mxGeometry>
        </mxCell>
        <mxCell id="FegyAu5vltgs20GAI60T-41" value="" style="curved=1;startArrow=none;endArrow=block;exitX=0.5;exitY=0.99;entryX=0.5;entryY=-0.01;rounded=0;" edge="1" parent="FegyAu5vltgs20GAI60T-24" source="FegyAu5vltgs20GAI60T-31" target="FegyAu5vltgs20GAI60T-32">
          <mxGeometry relative="1" as="geometry">
            <Array as="points" />
          </mxGeometry>
        </mxCell>
        <mxCell id="FegyAu5vltgs20GAI60T-42" value="" style="curved=1;startArrow=none;endArrow=block;exitX=0.5;exitY=0.99;entryX=0.5;entryY=-0.01;rounded=0;" edge="1" parent="FegyAu5vltgs20GAI60T-24" source="FegyAu5vltgs20GAI60T-33" target="FegyAu5vltgs20GAI60T-34">
          <mxGeometry relative="1" as="geometry">
            <Array as="points" />
          </mxGeometry>
        </mxCell>
        <mxCell id="FegyAu5vltgs20GAI60T-43" value="" style="curved=1;startArrow=none;endArrow=block;exitX=0.5;exitY=0.99;entryX=0.5;entryY=-0.01;rounded=0;" edge="1" parent="FegyAu5vltgs20GAI60T-24" source="FegyAu5vltgs20GAI60T-35" target="FegyAu5vltgs20GAI60T-36">
          <mxGeometry relative="1" as="geometry">
            <Array as="points" />
          </mxGeometry>
        </mxCell>
        <mxCell id="FegyAu5vltgs20GAI60T-44" value="Health Check API" style="whiteSpace=wrap;strokeWidth=2;verticalAlign=top;fontFamily=Helvetica;fontStyle=1;fontSize=20;" vertex="1" parent="1">
          <mxGeometry x="1181" y="560" width="573" height="248" as="geometry" />
        </mxCell>
        <mxCell id="FegyAu5vltgs20GAI60T-45" value="health_ready_probe()" style="whiteSpace=wrap;strokeWidth=2;" vertex="1" parent="FegyAu5vltgs20GAI60T-44">
          <mxGeometry x="51" y="46" width="216" height="49" as="geometry" />
        </mxCell>
        <mxCell id="FegyAu5vltgs20GAI60T-46" value="Return Readiness Status" style="whiteSpace=wrap;strokeWidth=2;" vertex="1" parent="FegyAu5vltgs20GAI60T-44">
          <mxGeometry x="43" y="170" width="231" height="49" as="geometry" />
        </mxCell>
        <mxCell id="FegyAu5vltgs20GAI60T-47" value="health_live_probe()" style="whiteSpace=wrap;strokeWidth=2;" vertex="1" parent="FegyAu5vltgs20GAI60T-44">
          <mxGeometry x="334" y="46" width="202" height="49" as="geometry" />
        </mxCell>
        <mxCell id="FegyAu5vltgs20GAI60T-48" value="Return Liveness Status" style="whiteSpace=wrap;strokeWidth=2;" vertex="1" parent="FegyAu5vltgs20GAI60T-44">
          <mxGeometry x="324" y="170" width="221" height="49" as="geometry" />
        </mxCell>
        <mxCell id="FegyAu5vltgs20GAI60T-49" value="" style="curved=1;startArrow=none;endArrow=block;exitX=0.5;exitY=0.99;entryX=0.5;entryY=-0.01;rounded=0;" edge="1" parent="FegyAu5vltgs20GAI60T-44" source="FegyAu5vltgs20GAI60T-45" target="FegyAu5vltgs20GAI60T-46">
          <mxGeometry relative="1" as="geometry">
            <Array as="points" />
          </mxGeometry>
        </mxCell>
        <mxCell id="FegyAu5vltgs20GAI60T-50" value="" style="curved=1;startArrow=none;endArrow=block;exitX=0.5;exitY=0.99;entryX=0.5;entryY=-0.01;rounded=0;" edge="1" parent="FegyAu5vltgs20GAI60T-44" source="FegyAu5vltgs20GAI60T-47" target="FegyAu5vltgs20GAI60T-48">
          <mxGeometry relative="1" as="geometry">
            <Array as="points" />
          </mxGeometry>
        </mxCell>
        <mxCell id="EMij9zx5z_txiVkKHvW7-8" style="edgeStyle=orthogonalEdgeStyle;rounded=0;orthogonalLoop=1;jettySize=auto;html=1;entryX=0;entryY=0.75;entryDx=0;entryDy=0;curved=1;" edge="1" parent="1" source="FegyAu5vltgs20GAI60T-51" target="FegyAu5vltgs20GAI60T-14">
          <mxGeometry relative="1" as="geometry" />
        </mxCell>
        <mxCell id="EMij9zx5z_txiVkKHvW7-9" style="edgeStyle=orthogonalEdgeStyle;rounded=0;orthogonalLoop=1;jettySize=auto;html=1;curved=1;entryX=0.25;entryY=0;entryDx=0;entryDy=0;" edge="1" parent="1" source="FegyAu5vltgs20GAI60T-51" target="FegyAu5vltgs20GAI60T-10">
          <mxGeometry relative="1" as="geometry" />
        </mxCell>
        <mxCell id="EMij9zx5z_txiVkKHvW7-14" style="edgeStyle=orthogonalEdgeStyle;rounded=0;orthogonalLoop=1;jettySize=auto;html=1;entryX=0.25;entryY=1;entryDx=0;entryDy=0;curved=1;exitX=1;exitY=0.5;exitDx=0;exitDy=0;" edge="1" parent="1" source="FegyAu5vltgs20GAI60T-51" target="FegyAu5vltgs20GAI60T-24">
          <mxGeometry relative="1" as="geometry">
            <mxPoint x="1754" y="440" as="sourcePoint" />
          </mxGeometry>
        </mxCell>
        <mxCell id="EMij9zx5z_txiVkKHvW7-15" style="edgeStyle=entityRelationEdgeStyle;rounded=0;orthogonalLoop=1;jettySize=auto;html=1;entryX=1;entryY=0.5;entryDx=0;entryDy=0;dashed=1;dashPattern=1 1;" edge="1" parent="1" source="FegyAu5vltgs20GAI60T-51" target="FegyAu5vltgs20GAI60T-57">
          <mxGeometry relative="1" as="geometry" />
        </mxCell>
        <mxCell id="EMij9zx5z_txiVkKHvW7-16" style="edgeStyle=entityRelationEdgeStyle;rounded=0;orthogonalLoop=1;jettySize=auto;html=1;entryX=1;entryY=0.5;entryDx=0;entryDy=0;dashed=1;dashPattern=1 1;" edge="1" parent="1" source="FegyAu5vltgs20GAI60T-51" target="FegyAu5vltgs20GAI60T-58">
          <mxGeometry relative="1" as="geometry" />
        </mxCell>
        <mxCell id="EMij9zx5z_txiVkKHvW7-17" style="edgeStyle=entityRelationEdgeStyle;rounded=0;orthogonalLoop=1;jettySize=auto;html=1;entryX=1;entryY=0.5;entryDx=0;entryDy=0;dashed=1;dashPattern=1 1;" edge="1" parent="1" source="FegyAu5vltgs20GAI60T-51" target="FegyAu5vltgs20GAI60T-59">
          <mxGeometry relative="1" as="geometry" />
        </mxCell>
        <mxCell id="EMij9zx5z_txiVkKHvW7-18" style="edgeStyle=entityRelationEdgeStyle;rounded=0;orthogonalLoop=1;jettySize=auto;html=1;entryX=1;entryY=0.5;entryDx=0;entryDy=0;dashed=1;dashPattern=1 1;" edge="1" parent="1" source="FegyAu5vltgs20GAI60T-51" target="FegyAu5vltgs20GAI60T-60">
          <mxGeometry relative="1" as="geometry" />
        </mxCell>
        <mxCell id="EMij9zx5z_txiVkKHvW7-19" style="edgeStyle=orthogonalEdgeStyle;rounded=0;orthogonalLoop=1;jettySize=auto;html=1;exitX=0.25;exitY=1;exitDx=0;exitDy=0;curved=1;" edge="1" parent="1" source="FegyAu5vltgs20GAI60T-51" target="FegyAu5vltgs20GAI60T-44">
          <mxGeometry relative="1" as="geometry" />
        </mxCell>
        <mxCell id="FegyAu5vltgs20GAI60T-51" value="User Request" style="whiteSpace=wrap;strokeWidth=2;fontFamily=Helvetica;fontStyle=1;fontSize=20;" vertex="1" parent="1">
          <mxGeometry x="1600" y="451" width="154" height="49" as="geometry" />
        </mxCell>
        <mxCell id="FegyAu5vltgs20GAI60T-57" value="handle_validation_error()" style="whiteSpace=wrap;strokeWidth=2;" vertex="1" parent="1">
          <mxGeometry x="1228" y="270" width="244" height="40" as="geometry" />
        </mxCell>
        <mxCell id="FegyAu5vltgs20GAI60T-58" value="handle_via_exception()" style="whiteSpace=wrap;strokeWidth=2;" vertex="1" parent="1">
          <mxGeometry x="1236" y="330" width="228" height="40" as="geometry" />
        </mxCell>
        <mxCell id="FegyAu5vltgs20GAI60T-59" value="handle_http_exception()" style="whiteSpace=wrap;strokeWidth=2;" vertex="1" parent="1">
          <mxGeometry x="1231" y="390" width="238" height="40" as="geometry" />
        </mxCell>
        <mxCell id="FegyAu5vltgs20GAI60T-60" value="handle_via_exception(Exception)" style="whiteSpace=wrap;strokeWidth=2;" vertex="1" parent="1">
          <mxGeometry x="1222" y="452" width="256" height="48" as="geometry" />
        </mxCell>
        <mxCell id="EMij9zx5z_txiVkKHvW7-13" value="" style="edgeStyle=orthogonalEdgeStyle;rounded=0;orthogonalLoop=1;jettySize=auto;html=1;curved=1;entryX=0.25;entryY=0;entryDx=0;entryDy=0;" edge="1" parent="1" source="FegyAu5vltgs20GAI60T-51" target="FegyAu5vltgs20GAI60T-2">
          <mxGeometry relative="1" as="geometry">
            <mxPoint x="1677" y="419" as="sourcePoint" />
            <mxPoint x="2351" y="113" as="targetPoint" />
          </mxGeometry>
        </mxCell>
        <mxCell id="FegyAu5vltgs20GAI60T-2" value="Summarization API" style="whiteSpace=wrap;strokeWidth=2;verticalAlign=top;fontFamily=Helvetica;fontStyle=1;fontSize=20;" vertex="1" parent="1">
          <mxGeometry x="1773" y="570" width="318" height="496" as="geometry" />
        </mxCell>
        <mxCell id="FegyAu5vltgs20GAI60T-3" value="summarize()" style="whiteSpace=wrap;strokeWidth=2;" vertex="1" parent="FegyAu5vltgs20GAI60T-2">
          <mxGeometry x="93" y="46" width="149" height="49" as="geometry" />
        </mxCell>
        <mxCell id="FegyAu5vltgs20GAI60T-4" value="Validate Request" style="whiteSpace=wrap;strokeWidth=2;" vertex="1" parent="FegyAu5vltgs20GAI60T-2">
          <mxGeometry x="76" y="170" width="181" height="49" as="geometry" />
        </mxCell>
        <mxCell id="FegyAu5vltgs20GAI60T-5" value="Process Summarization" style="whiteSpace=wrap;strokeWidth=2;" vertex="1" parent="FegyAu5vltgs20GAI60T-2">
          <mxGeometry x="55" y="294" width="224" height="49" as="geometry" />
        </mxCell>
        <mxCell id="FegyAu5vltgs20GAI60T-6" value="Return Summary Response" style="whiteSpace=wrap;strokeWidth=2;" vertex="1" parent="FegyAu5vltgs20GAI60T-2">
          <mxGeometry x="43" y="418" width="248" height="49" as="geometry" />
        </mxCell>
        <mxCell id="FegyAu5vltgs20GAI60T-7" value="" style="curved=1;startArrow=none;endArrow=block;exitX=0.5;exitY=0.99;entryX=0.5;entryY=-0.01;rounded=0;" edge="1" parent="FegyAu5vltgs20GAI60T-2" source="FegyAu5vltgs20GAI60T-3" target="FegyAu5vltgs20GAI60T-4">
          <mxGeometry relative="1" as="geometry">
            <Array as="points" />
          </mxGeometry>
        </mxCell>
        <mxCell id="FegyAu5vltgs20GAI60T-8" value="" style="curved=1;startArrow=none;endArrow=block;exitX=0.5;exitY=0.99;entryX=0.5;entryY=-0.01;rounded=0;" edge="1" parent="FegyAu5vltgs20GAI60T-2" source="FegyAu5vltgs20GAI60T-4" target="FegyAu5vltgs20GAI60T-5">
          <mxGeometry relative="1" as="geometry">
            <Array as="points" />
          </mxGeometry>
        </mxCell>
        <mxCell id="FegyAu5vltgs20GAI60T-9" value="" style="curved=1;startArrow=none;endArrow=block;exitX=0.5;exitY=0.99;entryX=0.5;entryY=-0.01;rounded=0;" edge="1" parent="FegyAu5vltgs20GAI60T-2" source="FegyAu5vltgs20GAI60T-5" target="FegyAu5vltgs20GAI60T-6">
          <mxGeometry relative="1" as="geometry">
            <Array as="points" />
          </mxGeometry>
        </mxCell>
      </root>
    </mxGraphModel>
  </diagram>
  <diagram id="9SBWbjS_fOtWewQwvcsn" name="client/summarization.py">
    <mxGraphModel dx="2049" dy="2223" grid="1" gridSize="10" guides="1" tooltips="1" connect="1" arrows="1" fold="1" page="1" pageScale="1" pageWidth="827" pageHeight="1169" math="0" shadow="0">
      <root>
        <mxCell id="0" />
        <mxCell id="1" parent="0" />
        <mxCell id="Hwj4x7cwm4mXb5QrM_J7-1" value="Key Functions" style="whiteSpace=wrap;strokeWidth=2;fontStyle=1;fontSize=23;fillColor=#ffe6cc;strokeColor=#d79b00;" vertex="1" parent="1">
          <mxGeometry x="490" y="320" width="450" height="820" as="geometry" />
        </mxCell>
        <mxCell id="Hwj4x7cwm4mXb5QrM_J7-2" value="Video Summarization Process" style="whiteSpace=wrap;strokeWidth=2;verticalAlign=top;align=right;fontStyle=1;fontSize=23;fillColor=#dae8fc;strokeColor=#6c8ebf;" vertex="1" parent="1">
          <mxGeometry x="954.5" y="-188" width="343" height="1598" as="geometry" />
        </mxCell>
        <mxCell id="Hwj4x7cwm4mXb5QrM_J7-3" value="Backend Processing" style="whiteSpace=wrap;strokeWidth=2;fontStyle=1;fontSize=23;verticalAlign=top;" vertex="1" parent="1">
          <mxGeometry x="990" y="480" width="280" height="425" as="geometry" />
        </mxCell>
        <mxCell id="Hwj4x7cwm4mXb5QrM_J7-4" value="User Interaction" style="whiteSpace=wrap;strokeWidth=2;verticalAlign=bottom;align=center;fontStyle=1;fontSize=23;" vertex="1" parent="1">
          <mxGeometry x="1007" y="-40" width="240" height="340" as="geometry" />
        </mxCell>
        <mxCell id="Hwj4x7cwm4mXb5QrM_J7-5" value="Start Video Summarization" style="whiteSpace=wrap;strokeWidth=2;fillColor=#ffe6cc;strokeColor=#d79b00;" vertex="1" parent="1">
          <mxGeometry x="1032.75" y="-120" width="186.5" height="49" as="geometry" />
        </mxCell>
        <mxCell id="lRjIgxxxqGjfRbV4y0zQ-2" style="edgeStyle=orthogonalEdgeStyle;rounded=0;orthogonalLoop=1;jettySize=auto;html=1;curved=1;exitX=0;exitY=0.5;exitDx=0;exitDy=0;entryX=0.5;entryY=0;entryDx=0;entryDy=0;" edge="1" parent="1" source="Hwj4x7cwm4mXb5QrM_J7-6" target="Hwj4x7cwm4mXb5QrM_J7-15">
          <mxGeometry relative="1" as="geometry">
            <mxPoint x="591" y="343" as="targetPoint" />
          </mxGeometry>
        </mxCell>
        <mxCell id="Hwj4x7cwm4mXb5QrM_J7-6" value="Upload/Select Video" style="whiteSpace=wrap;strokeWidth=2;" vertex="1" parent="1">
          <mxGeometry x="1022" y="4" width="208" height="49" as="geometry" />
        </mxCell>
        <mxCell id="lRjIgxxxqGjfRbV4y0zQ-3" style="edgeStyle=orthogonalEdgeStyle;rounded=0;orthogonalLoop=1;jettySize=auto;html=1;entryX=0.5;entryY=0;entryDx=0;entryDy=0;curved=1;exitX=0;exitY=0.5;exitDx=0;exitDy=0;" edge="1" parent="1" source="Hwj4x7cwm4mXb5QrM_J7-7" target="Hwj4x7cwm4mXb5QrM_J7-15">
          <mxGeometry relative="1" as="geometry" />
        </mxCell>
        <mxCell id="Hwj4x7cwm4mXb5QrM_J7-7" value="Configure Parameters" style="whiteSpace=wrap;strokeWidth=2;" vertex="1" parent="1">
          <mxGeometry x="1018.5" y="90" width="215" height="49" as="geometry" />
        </mxCell>
        <mxCell id="lRjIgxxxqGjfRbV4y0zQ-4" style="edgeStyle=orthogonalEdgeStyle;rounded=0;orthogonalLoop=1;jettySize=auto;html=1;entryX=0.5;entryY=0;entryDx=0;entryDy=0;curved=1;exitX=0;exitY=0.5;exitDx=0;exitDy=0;" edge="1" parent="1" source="Hwj4x7cwm4mXb5QrM_J7-8" target="Hwj4x7cwm4mXb5QrM_J7-15">
          <mxGeometry relative="1" as="geometry" />
        </mxCell>
        <mxCell id="Hwj4x7cwm4mXb5QrM_J7-8" value="Summarize Button" style="whiteSpace=wrap;strokeWidth=2;" vertex="1" parent="1">
          <mxGeometry x="1030.5" y="180" width="191" height="49" as="geometry" />
        </mxCell>
        <mxCell id="Hwj4x7cwm4mXb5QrM_J7-9" value="Upload File to Backend" style="whiteSpace=wrap;strokeWidth=2;" vertex="1" parent="1">
          <mxGeometry x="1015" y="530" width="226" height="49" as="geometry" />
        </mxCell>
        <mxCell id="Hwj4x7cwm4mXb5QrM_J7-10" value="Select Model" style="whiteSpace=wrap;strokeWidth=2;" vertex="1" parent="1">
          <mxGeometry x="1052" y="629" width="152" height="49" as="geometry" />
        </mxCell>
        <mxCell id="Hwj4x7cwm4mXb5QrM_J7-11" value="Process Video in Chunks" style="whiteSpace=wrap;strokeWidth=2;" vertex="1" parent="1">
          <mxGeometry x="1012" y="728" width="231" height="49" as="geometry" />
        </mxCell>
        <mxCell id="lRjIgxxxqGjfRbV4y0zQ-8" style="edgeStyle=orthogonalEdgeStyle;rounded=0;orthogonalLoop=1;jettySize=auto;html=1;curved=1;exitX=0.5;exitY=1;exitDx=0;exitDy=0;" edge="1" parent="1" source="Hwj4x7cwm4mXb5QrM_J7-12" target="Hwj4x7cwm4mXb5QrM_J7-16">
          <mxGeometry relative="1" as="geometry" />
        </mxCell>
        <mxCell id="Hwj4x7cwm4mXb5QrM_J7-12" value="Generate Summary" style="whiteSpace=wrap;strokeWidth=2;" vertex="1" parent="1">
          <mxGeometry x="1028" y="827" width="198" height="49" as="geometry" />
        </mxCell>
        <mxCell id="Hwj4x7cwm4mXb5QrM_J7-13" value="Display Summary in Chatbot" style="whiteSpace=wrap;strokeWidth=2;" vertex="1" parent="1">
          <mxGeometry x="1026" y="1230" width="200" height="67" as="geometry" />
        </mxCell>
        <mxCell id="Hwj4x7cwm4mXb5QrM_J7-14" value="End Process" style="whiteSpace=wrap;strokeWidth=2;" vertex="1" parent="1">
          <mxGeometry x="1054" y="1330" width="144" height="49" as="geometry" />
        </mxCell>
        <mxCell id="lRjIgxxxqGjfRbV4y0zQ-1" style="edgeStyle=orthogonalEdgeStyle;rounded=0;orthogonalLoop=1;jettySize=auto;html=1;entryX=0;entryY=0.5;entryDx=0;entryDy=0;curved=1;exitX=0.5;exitY=1;exitDx=0;exitDy=0;" edge="1" parent="1" source="Hwj4x7cwm4mXb5QrM_J7-15" target="Hwj4x7cwm4mXb5QrM_J7-9">
          <mxGeometry relative="1" as="geometry" />
        </mxCell>
        <mxCell id="Hwj4x7cwm4mXb5QrM_J7-15" value="summarize()&#xa;Initiate video processing" style="whiteSpace=wrap;strokeWidth=2;fillColor=#e1d5e7;strokeColor=#9673a6;" vertex="1" parent="1">
          <mxGeometry x="645" y="350" width="235" height="67" as="geometry" />
        </mxCell>
        <mxCell id="Hwj4x7cwm4mXb5QrM_J7-34" style="edgeStyle=orthogonalEdgeStyle;rounded=0;orthogonalLoop=1;jettySize=auto;html=1;exitX=0.5;exitY=1;exitDx=0;exitDy=0;curved=1;" edge="1" parent="1" source="Hwj4x7cwm4mXb5QrM_J7-16" target="Hwj4x7cwm4mXb5QrM_J7-13">
          <mxGeometry relative="1" as="geometry" />
        </mxCell>
        <mxCell id="Y4U4-awYcDceY2CD3awR-9" style="edgeStyle=orthogonalEdgeStyle;rounded=0;orthogonalLoop=1;jettySize=auto;html=1;exitX=0;exitY=0.5;exitDx=0;exitDy=0;entryX=0.5;entryY=1;entryDx=0;entryDy=0;" edge="1" parent="1" source="Hwj4x7cwm4mXb5QrM_J7-16" target="Hwj4x7cwm4mXb5QrM_J7-18">
          <mxGeometry relative="1" as="geometry" />
        </mxCell>
        <mxCell id="Y4U4-awYcDceY2CD3awR-10" value="call function" style="edgeLabel;html=1;align=center;verticalAlign=middle;resizable=0;points=[];" vertex="1" connectable="0" parent="Y4U4-awYcDceY2CD3awR-9">
          <mxGeometry x="0.6444" y="-2" relative="1" as="geometry">
            <mxPoint as="offset" />
          </mxGeometry>
        </mxCell>
        <mxCell id="Hwj4x7cwm4mXb5QrM_J7-16" value="summarize_response()&#xa;Handle response generation" style="whiteSpace=wrap;strokeWidth=2;fillColor=#e1d5e7;strokeColor=#9673a6;" vertex="1" parent="1">
          <mxGeometry x="660" y="1039" width="260" height="67" as="geometry" />
        </mxCell>
        <mxCell id="Hwj4x7cwm4mXb5QrM_J7-17" value="convert_seconds_to_string()&#xa;Format time stamps" style="whiteSpace=wrap;strokeWidth=2;fillColor=#e1d5e7;strokeColor=#9673a6;" vertex="1" parent="1">
          <mxGeometry x="510" y="790" width="257" height="84" as="geometry" />
        </mxCell>
        <mxCell id="Y4U4-awYcDceY2CD3awR-11" style="edgeStyle=orthogonalEdgeStyle;rounded=0;orthogonalLoop=1;jettySize=auto;html=1;" edge="1" parent="1" source="Hwj4x7cwm4mXb5QrM_J7-18" target="Hwj4x7cwm4mXb5QrM_J7-17">
          <mxGeometry relative="1" as="geometry" />
        </mxCell>
        <mxCell id="Y4U4-awYcDceY2CD3awR-12" value="call function" style="edgeLabel;html=1;align=center;verticalAlign=middle;resizable=0;points=[];" vertex="1" connectable="0" parent="Y4U4-awYcDceY2CD3awR-11">
          <mxGeometry x="0.012" y="4" relative="1" as="geometry">
            <mxPoint as="offset" />
          </mxGeometry>
        </mxCell>
        <mxCell id="Hwj4x7cwm4mXb5QrM_J7-18" value="get_response_table()&#xa;Create response table" style="whiteSpace=wrap;strokeWidth=2;fillColor=#e1d5e7;strokeColor=#9673a6;" vertex="1" parent="1">
          <mxGeometry x="529.5" y="940" width="218" height="67" as="geometry" />
        </mxCell>
        <mxCell id="Hwj4x7cwm4mXb5QrM_J7-19" value="" style="curved=1;startArrow=none;endArrow=block;exitX=0.5;exitY=1;entryX=0.5;entryY=0;rounded=0;entryDx=0;entryDy=0;" edge="1" parent="1" source="Hwj4x7cwm4mXb5QrM_J7-5" target="Hwj4x7cwm4mXb5QrM_J7-4">
          <mxGeometry relative="1" as="geometry">
            <Array as="points" />
          </mxGeometry>
        </mxCell>
        <mxCell id="Hwj4x7cwm4mXb5QrM_J7-24" value="" style="curved=1;startArrow=none;endArrow=block;exitX=0.5;exitY=0.99;entryX=0.5;entryY=-0.01;rounded=0;" edge="1" parent="1" source="Hwj4x7cwm4mXb5QrM_J7-9" target="Hwj4x7cwm4mXb5QrM_J7-10">
          <mxGeometry relative="1" as="geometry">
            <Array as="points" />
          </mxGeometry>
        </mxCell>
        <mxCell id="Hwj4x7cwm4mXb5QrM_J7-25" value="" style="curved=1;startArrow=none;endArrow=block;exitX=0.5;exitY=0.99;entryX=0.5;entryY=-0.01;rounded=0;" edge="1" parent="1" source="Hwj4x7cwm4mXb5QrM_J7-10" target="Hwj4x7cwm4mXb5QrM_J7-11">
          <mxGeometry relative="1" as="geometry">
            <Array as="points" />
          </mxGeometry>
        </mxCell>
        <mxCell id="Hwj4x7cwm4mXb5QrM_J7-26" value="" style="curved=1;startArrow=none;endArrow=block;exitX=0.5;exitY=0.99;entryX=0.5;entryY=-0.01;rounded=0;" edge="1" parent="1" source="Hwj4x7cwm4mXb5QrM_J7-11" target="Hwj4x7cwm4mXb5QrM_J7-12">
          <mxGeometry relative="1" as="geometry">
            <Array as="points" />
          </mxGeometry>
        </mxCell>
        <mxCell id="Hwj4x7cwm4mXb5QrM_J7-29" value="" style="curved=1;startArrow=none;endArrow=block;exitX=0.5;exitY=0.99;entryX=0.5;entryY=0.01;rounded=0;" edge="1" parent="1" source="Hwj4x7cwm4mXb5QrM_J7-13" target="Hwj4x7cwm4mXb5QrM_J7-14">
          <mxGeometry relative="1" as="geometry">
            <Array as="points" />
          </mxGeometry>
        </mxCell>
      </root>
    </mxGraphModel>
  </diagram>
  <diagram id="WX8mODLaMdi3o__UWQHE" name="client/rtsp_stream.py">
    <mxGraphModel dx="1434" dy="1907" grid="1" gridSize="10" guides="1" tooltips="1" connect="1" arrows="1" fold="1" page="1" pageScale="1" pageWidth="827" pageHeight="1169" math="0" shadow="0">
      <root>
        <mxCell id="0" />
        <mxCell id="1" parent="0" />
        <mxCell id="BdCG4kf13asMFj86Ocrw-1" value="User Interactions" style="whiteSpace=wrap;strokeWidth=2;verticalAlign=bottom;fontSize=20;fontStyle=1" vertex="1" parent="1">
          <mxGeometry x="430" y="-220" width="262" height="369" as="geometry" />
        </mxCell>
        <mxCell id="BdCG4kf13asMFj86Ocrw-2" value="Backend Interactions" style="whiteSpace=wrap;strokeWidth=2;align=left;fontStyle=1;fontSize=20;" vertex="1" parent="1">
          <mxGeometry x="20" y="210" width="410" height="600" as="geometry" />
        </mxCell>
        <mxCell id="BdCG4kf13asMFj86Ocrw-3" value="RTSP Streaming Workflow" style="whiteSpace=wrap;strokeWidth=2;verticalAlign=middle;align=right;fontSize=20;fontStyle=1" vertex="1" parent="1">
          <mxGeometry x="450" y="210" width="550" height="840" as="geometry" />
        </mxCell>
        <mxCell id="BdCG4kf13asMFj86Ocrw-44" style="edgeStyle=orthogonalEdgeStyle;rounded=0;orthogonalLoop=1;jettySize=auto;html=1;exitX=0.5;exitY=1;exitDx=0;exitDy=0;entryX=1;entryY=0.5;entryDx=0;entryDy=0;curved=1;fillColor=#ffe6cc;strokeColor=#d79b00;strokeWidth=3;" edge="1" parent="1" source="BdCG4kf13asMFj86Ocrw-5" target="BdCG4kf13asMFj86Ocrw-13">
          <mxGeometry relative="1" as="geometry" />
        </mxCell>
        <mxCell id="BdCG4kf13asMFj86Ocrw-5" value="RTSP Stream Input" style="whiteSpace=wrap;strokeWidth=2;fillColor=#ffe6cc;strokeColor=#d79b00;" vertex="1" parent="1">
          <mxGeometry x="495" y="245" width="192" height="49" as="geometry" />
        </mxCell>
        <mxCell id="BdCG4kf13asMFj86Ocrw-52" style="edgeStyle=orthogonalEdgeStyle;rounded=0;orthogonalLoop=1;jettySize=auto;html=1;entryX=0.75;entryY=0;entryDx=0;entryDy=0;curved=1;" edge="1" parent="1" source="BdCG4kf13asMFj86Ocrw-6" target="BdCG4kf13asMFj86Ocrw-10">
          <mxGeometry relative="1" as="geometry" />
        </mxCell>
        <mxCell id="BdCG4kf13asMFj86Ocrw-59" style="edgeStyle=orthogonalEdgeStyle;rounded=0;orthogonalLoop=1;jettySize=auto;html=1;curved=1;entryX=0.75;entryY=0;entryDx=0;entryDy=0;" edge="1" parent="1" source="BdCG4kf13asMFj86Ocrw-7" target="BdCG4kf13asMFj86Ocrw-10">
          <mxGeometry relative="1" as="geometry">
            <mxPoint x="967" y="530" as="targetPoint" />
          </mxGeometry>
        </mxCell>
        <mxCell id="BdCG4kf13asMFj86Ocrw-55" style="edgeStyle=orthogonalEdgeStyle;rounded=0;orthogonalLoop=1;jettySize=auto;html=1;entryX=0.75;entryY=0;entryDx=0;entryDy=0;curved=1;" edge="1" parent="1" source="BdCG4kf13asMFj86Ocrw-8" target="BdCG4kf13asMFj86Ocrw-10">
          <mxGeometry relative="1" as="geometry" />
        </mxCell>
        <mxCell id="BdCG4kf13asMFj86Ocrw-56" style="edgeStyle=orthogonalEdgeStyle;rounded=0;orthogonalLoop=1;jettySize=auto;html=1;curved=1;entryX=0.75;entryY=0;entryDx=0;entryDy=0;" edge="1" parent="1" source="BdCG4kf13asMFj86Ocrw-9" target="BdCG4kf13asMFj86Ocrw-10">
          <mxGeometry relative="1" as="geometry" />
        </mxCell>
        <mxCell id="BdCG4kf13asMFj86Ocrw-45" style="edgeStyle=orthogonalEdgeStyle;rounded=0;orthogonalLoop=1;jettySize=auto;html=1;entryX=0.5;entryY=0;entryDx=0;entryDy=0;curved=1;exitX=0.5;exitY=1;exitDx=0;exitDy=0;fillColor=#ffe6cc;strokeColor=#d79b00;strokeWidth=3;" edge="1" parent="1" source="BdCG4kf13asMFj86Ocrw-10" target="BdCG4kf13asMFj86Ocrw-14">
          <mxGeometry relative="1" as="geometry" />
        </mxCell>
        <mxCell id="BdCG4kf13asMFj86Ocrw-10" value="Stream Processing Engine" style="whiteSpace=wrap;strokeWidth=2;fillColor=#ffe6cc;strokeColor=#d79b00;" vertex="1" parent="1">
          <mxGeometry x="495" y="560" width="242" height="49" as="geometry" />
        </mxCell>
        <mxCell id="BdCG4kf13asMFj86Ocrw-11" value="Summary Generation" style="whiteSpace=wrap;strokeWidth=2;fillColor=#ffe6cc;strokeColor=#d79b00;" vertex="1" parent="1">
          <mxGeometry x="495" y="870" width="210" height="49" as="geometry" />
        </mxCell>
        <mxCell id="BdCG4kf13asMFj86Ocrw-12" value="Summary Output Display" style="whiteSpace=wrap;strokeWidth=2;fillColor=#ffe6cc;strokeColor=#d79b00;" vertex="1" parent="1">
          <mxGeometry x="481.5" y="980" width="237" height="49" as="geometry" />
        </mxCell>
        <mxCell id="BdCG4kf13asMFj86Ocrw-13" value="Live Stream Manager" style="whiteSpace=wrap;strokeWidth=2;fillColor=#ffe6cc;strokeColor=#d79b00;" vertex="1" parent="1">
          <mxGeometry x="180" y="421" width="210" height="49" as="geometry" />
        </mxCell>
        <mxCell id="BdCG4kf13asMFj86Ocrw-47" style="edgeStyle=orthogonalEdgeStyle;rounded=0;orthogonalLoop=1;jettySize=auto;html=1;curved=1;exitX=0.5;exitY=1;exitDx=0;exitDy=0;fillColor=#ffe6cc;strokeColor=#d79b00;strokeWidth=3;" edge="1" parent="1" source="BdCG4kf13asMFj86Ocrw-14" target="BdCG4kf13asMFj86Ocrw-11">
          <mxGeometry relative="1" as="geometry" />
        </mxCell>
        <mxCell id="BdCG4kf13asMFj86Ocrw-14" value="SSE Event Listener" style="whiteSpace=wrap;strokeWidth=2;fillColor=#ffe6cc;strokeColor=#d79b00;" vertex="1" parent="1">
          <mxGeometry x="221" y="730" width="193" height="49" as="geometry" />
        </mxCell>
        <mxCell id="BdCG4kf13asMFj86Ocrw-15" value="Request Monitoring Thread" style="whiteSpace=wrap;strokeWidth=2;" vertex="1" parent="1">
          <mxGeometry x="55" y="245" width="195" height="49" as="geometry" />
        </mxCell>
        <mxCell id="BdCG4kf13asMFj86Ocrw-40" style="edgeStyle=orthogonalEdgeStyle;rounded=0;orthogonalLoop=1;jettySize=auto;html=1;exitX=0;exitY=0.5;exitDx=0;exitDy=0;entryX=0.75;entryY=0;entryDx=0;entryDy=0;curved=1;" edge="1" parent="1" source="BdCG4kf13asMFj86Ocrw-16" target="BdCG4kf13asMFj86Ocrw-13">
          <mxGeometry relative="1" as="geometry" />
        </mxCell>
        <mxCell id="BdCG4kf13asMFj86Ocrw-16" value="Start Streaming" style="whiteSpace=wrap;strokeWidth=2;" vertex="1" parent="1">
          <mxGeometry x="472" y="-200" width="172" height="49" as="geometry" />
        </mxCell>
        <mxCell id="BdCG4kf13asMFj86Ocrw-41" style="edgeStyle=orthogonalEdgeStyle;rounded=0;orthogonalLoop=1;jettySize=auto;html=1;exitX=0;exitY=0.5;exitDx=0;exitDy=0;entryX=0.75;entryY=0;entryDx=0;entryDy=0;curved=1;" edge="1" parent="1" source="BdCG4kf13asMFj86Ocrw-17" target="BdCG4kf13asMFj86Ocrw-13">
          <mxGeometry relative="1" as="geometry" />
        </mxCell>
        <mxCell id="BdCG4kf13asMFj86Ocrw-17" value="Stop Streaming" style="whiteSpace=wrap;strokeWidth=2;" vertex="1" parent="1">
          <mxGeometry x="472" y="-130" width="168" height="49" as="geometry" />
        </mxCell>
        <mxCell id="BdCG4kf13asMFj86Ocrw-42" style="edgeStyle=orthogonalEdgeStyle;rounded=0;orthogonalLoop=1;jettySize=auto;html=1;exitX=0;exitY=0.5;exitDx=0;exitDy=0;entryX=0.75;entryY=0;entryDx=0;entryDy=0;curved=1;" edge="1" parent="1" source="BdCG4kf13asMFj86Ocrw-18" target="BdCG4kf13asMFj86Ocrw-13">
          <mxGeometry relative="1" as="geometry" />
        </mxCell>
        <mxCell id="BdCG4kf13asMFj86Ocrw-18" value="Refresh Streams" style="whiteSpace=wrap;strokeWidth=2;" vertex="1" parent="1">
          <mxGeometry x="472" y="-60" width="176" height="49" as="geometry" />
        </mxCell>
        <mxCell id="BdCG4kf13asMFj86Ocrw-43" style="edgeStyle=orthogonalEdgeStyle;rounded=0;orthogonalLoop=1;jettySize=auto;html=1;exitX=0;exitY=0.5;exitDx=0;exitDy=0;entryX=0.75;entryY=0;entryDx=0;entryDy=0;curved=1;" edge="1" parent="1" source="BdCG4kf13asMFj86Ocrw-19" target="BdCG4kf13asMFj86Ocrw-13">
          <mxGeometry relative="1" as="geometry">
            <mxPoint x="270" y="410" as="targetPoint" />
          </mxGeometry>
        </mxCell>
        <mxCell id="BdCG4kf13asMFj86Ocrw-19" value="Reconnect Stream" style="whiteSpace=wrap;strokeWidth=2;" vertex="1" parent="1">
          <mxGeometry x="472" y="11" width="180" height="49" as="geometry" />
        </mxCell>
        <mxCell id="BdCG4kf13asMFj86Ocrw-25" value="" style="curved=1;startArrow=none;endArrow=block;exitX=0.5;exitY=1;entryX=0;entryY=0.42;rounded=0;fillColor=#ffe6cc;strokeColor=#d79b00;strokeWidth=3;exitDx=0;exitDy=0;" edge="1" parent="1" source="BdCG4kf13asMFj86Ocrw-13" target="BdCG4kf13asMFj86Ocrw-10">
          <mxGeometry relative="1" as="geometry">
            <Array as="points">
              <mxPoint x="330" y="510" />
            </Array>
          </mxGeometry>
        </mxCell>
        <mxCell id="BdCG4kf13asMFj86Ocrw-28" value="" style="curved=1;startArrow=none;endArrow=block;exitX=0.5;exitY=1;entryX=0.5;entryY=0;rounded=0;fillColor=#ffe6cc;strokeColor=#d79b00;strokeWidth=3;" edge="1" parent="1" source="BdCG4kf13asMFj86Ocrw-11" target="BdCG4kf13asMFj86Ocrw-12">
          <mxGeometry relative="1" as="geometry">
            <Array as="points" />
          </mxGeometry>
        </mxCell>
        <mxCell id="BdCG4kf13asMFj86Ocrw-29" value="Track Active Streams" style="curved=1;startArrow=none;endArrow=block;exitX=0.5;exitY=1;entryX=0.25;entryY=0;rounded=0;entryDx=0;entryDy=0;" edge="1" parent="1" source="BdCG4kf13asMFj86Ocrw-15" target="BdCG4kf13asMFj86Ocrw-13">
          <mxGeometry relative="1" as="geometry">
            <Array as="points">
              <mxPoint x="181" y="382" />
            </Array>
          </mxGeometry>
        </mxCell>
        <mxCell id="BdCG4kf13asMFj86Ocrw-4" value="Streaming Configuration" style="whiteSpace=wrap;strokeWidth=2;verticalAlign=top;fillColor=none;fontSize=20;fontStyle=1" vertex="1" parent="1">
          <mxGeometry x="720" y="230" width="260" height="310" as="geometry" />
        </mxCell>
        <mxCell id="BdCG4kf13asMFj86Ocrw-6" value="Chunk Size" style="whiteSpace=wrap;strokeWidth=2;" vertex="1" parent="1">
          <mxGeometry x="758" y="270" width="138" height="49" as="geometry" />
        </mxCell>
        <mxCell id="BdCG4kf13asMFj86Ocrw-7" value="Summary Duration" style="whiteSpace=wrap;strokeWidth=2;" vertex="1" parent="1">
          <mxGeometry x="758" y="340" width="192" height="49" as="geometry" />
        </mxCell>
        <mxCell id="BdCG4kf13asMFj86Ocrw-8" value="Optional Prompts" style="whiteSpace=wrap;strokeWidth=2;" vertex="1" parent="1">
          <mxGeometry x="758" y="410" width="184" height="49" as="geometry" />
        </mxCell>
        <mxCell id="BdCG4kf13asMFj86Ocrw-9" value="Model Parameters" style="whiteSpace=wrap;strokeWidth=2;" vertex="1" parent="1">
          <mxGeometry x="758" y="470" width="190" height="49" as="geometry" />
        </mxCell>
      </root>
    </mxGraphModel>
  </diagram>
  <diagram id="OF9ByomQ2LBm4EHNZgwN" name="Page-5">
    <mxGraphModel dx="1434" dy="738" grid="1" gridSize="10" guides="1" tooltips="1" connect="1" arrows="1" fold="1" page="1" pageScale="1" pageWidth="827" pageHeight="1169" math="0" shadow="0">
      <root>
        <mxCell id="0" />
        <mxCell id="1" parent="0" />
      </root>
    </mxGraphModel>
  </diagram>
</mxfile>
